<?xml version="1.0" encoding="utf-8"?>
<!-- Generator: Adobe Illustrator 22.0.1, SVG Export Plug-In . SVG Version: 6.00 Build 0)  -->
<svg version="1.1" id="Layer_1" xmlns="http://www.w3.org/2000/svg" xmlns:xlink="http://www.w3.org/1999/xlink" x="0px" y="0px"
	 viewBox="0 0 274 63.7" style="enable-background:new 0 0 274 63.7;" xml:space="preserve">
<style type="text/css">
	.st0{fill:#8C7F4E;}
</style>
<g>
	<path class="st0" d="M31.2,29.6c2-2.8,3.1-6.2,3.1-9.9C34.3,10,26.4,2,16.6,2H0.1v17h10.7v-6.9h5.3c3.4,0,7,2.6,7,6.8s-3.6,7-7,7
		h-1.6h-3.6H0.1v36.5H20c10.1,0,18.3-8.1,18.3-18.3C38.3,38.2,35.6,32.9,31.2,29.6z M19.9,52.1h-8.8V37.5h8.8c4.1,0,7.4,3.3,7.4,7.3
		C27.3,48.9,23.9,52.1,19.9,52.1z"/>
	<path class="st0" d="M154.4,29.6c2-2.8,3.1-6.2,3.1-9.9c0-9.7-7.9-17.7-17.7-17.7h-16.5v17H134v-6.9h5.3c3.4,0,7,2.6,7,6.8
		s-3.6,7-7,7h-1.8h-3.4h-10.7v36.5h19.9c10.1,0,18.3-8.1,18.3-18.3C161.6,38.2,158.8,32.9,154.4,29.6z M143.1,52.1h-8.8V37.5h8.8
		c4.1,0,7.4,3.3,7.4,7.3C150.5,48.9,147.2,52.1,143.1,52.1z"/>
	<path class="st0" d="M110.9,32.1c0,17.3-14.1,31.3-31.3,31.3c-17.3,0-31.3-14.1-31.3-31.3S62.4,0.8,79.6,0.8
		C96.8,0.8,110.9,14.8,110.9,32.1z M60.7,32.1c0,10.4,8.5,18.9,18.9,18.9s18.9-8.5,18.9-18.9S90,13.2,79.6,13.2S60.7,21.6,60.7,32.1
		z"/>
	<polygon class="st0" points="263.2,62.3 253.1,52.2 263.2,42 273.3,52.2 	"/>
	<path class="st0" d="M266.4,1.9l-27.7,60.4h-2.9l-10.1-22.1l-10.2,22.2h-2.9L185,1.9h13.4l16.1,34l5.3-10.2L208.2,1.9h13.4
		l15.7,33.5l15.8-33.5C253.1,1.9,266.4,1.9,266.4,1.9z"/>
</g>
</svg>
