<?xml version="1.0" encoding="utf-8"?>
<!-- Generator: Adobe Illustrator 22.0.1, SVG Export Plug-In . SVG Version: 6.00 Build 0)  -->
<svg version="1.1" id="Group_218" xmlns="http://www.w3.org/2000/svg" xmlns:xlink="http://www.w3.org/1999/xlink" x="0px" y="0px"
	 viewBox="0 0 54.1 54.1" style="enable-background:new 0 0 54.1 54.1;" xml:space="preserve">
<path id="Path_286" d="M27,54.1C12.1,54.1,0,42,0,27S12.1,0,27,0c14.9,0,27,12.1,27,27C54,42,42,54,27,54.1 M27,4.4
	C14.5,4.4,4.4,14.5,4.4,27S14.5,49.7,27,49.7c12.5,0,22.6-10.1,22.6-22.6C49.7,14.5,39.5,4.4,27,4.4"/>
<path id="Path_287" d="M16.3,39.4l3.1-3.1c4.2,4.2,11,4.2,15.2,0l3.1,3.1C31.8,45.3,22.2,45.3,16.3,39.4"/>
<path id="Path_288" d="M23.5,21.6c0,2.3-1.9,4.1-4.1,4.1s-4.1-1.9-4.1-4.1s1.9-4.1,4.1-4.1l0,0C21.7,17.5,23.5,19.3,23.5,21.6"/>
<path id="Path_289" d="M38.8,21.6c0,2.3-1.9,4.1-4.1,4.1s-4.1-1.9-4.1-4.1s1.9-4.1,4.1-4.1l0,0C37,17.5,38.8,19.3,38.8,21.6"/>
</svg>
