<?xml version="1.0" encoding="utf-8"?>
<!-- Generator: Adobe Illustrator 22.0.1, SVG Export Plug-In . SVG Version: 6.00 Build 0)  -->
<svg version="1.1" id="Capa_1" xmlns="http://www.w3.org/2000/svg" xmlns:xlink="http://www.w3.org/1999/xlink" x="0px" y="0px"
	 viewBox="0 0 44.8 92" style="enable-background:new 0 0 44.8 92;" xml:space="preserve">
<style type="text/css">
	.st0{fill:#8C7F4E;}
</style>
<g>
	<path class="st0" d="M22.4,21.7c6,0,10.8-4.9,10.8-10.8S28.4,0,22.4,0S11.6,4.9,11.6,10.8S16.4,21.7,22.4,21.7z"/>
	<path class="st0" d="M44.5,54l-8.8-27.2c-0.5-1.5-2-2.6-3.6-2.6h-1.3h-0.9h-15H14h-1.3c-1.5,0-3.1,1.1-3.6,2.6L0.4,54
		c-0.3,0.8-0.2,1.6,0.3,2.2s1.2,1,2,1h2.2c1.5,0,3.1-1.1,3.6-2.6l2.5-7.8v10.5v0.5V87c0,2.8,2.2,5,5,5h0.4c2.8,0,5-2.2,5-5V60.8h2.1
		V87c0,2.8,2.2,5,5,5h0.4c2.8,0,5-2.2,5-5V57.8v-0.5V46.9l2.5,7.8c0.5,1.5,2,2.6,3.6,2.6h2.3c0.8,0,1.6-0.4,2-1S44.8,54.8,44.5,54z"
		/>
</g>
</svg>
