<?xml version="1.0" encoding="utf-8"?>
<!-- Generator: Adobe Illustrator 22.0.1, SVG Export Plug-In . SVG Version: 6.00 Build 0)  -->
<svg version="1.1" id="Group_215" xmlns="http://www.w3.org/2000/svg" xmlns:xlink="http://www.w3.org/1999/xlink" x="0px" y="0px"
	 viewBox="0 0 64.1 64.1" style="enable-background:new 0 0 64.1 64.1;" xml:space="preserve">
<style type="text/css">
	.st0{fill:#8A7F4E;}
</style>
<path id="Path_265" d="M64,29.7l0.1,4.6H22.7v-4.6L64,29.7z"/>
<path id="Path_266" d="M13.3,45.3C5.9,45.3,0,39.4,0,32s5.9-13.3,13.3-13.3c7.3,0,13.3,5.9,13.3,13.3C26.5,39.4,20.6,45.3,13.3,45.3
	 M13.3,23.2c-4.9,0-8.9,4-8.9,8.9c0,4.9,4,8.9,8.9,8.9c4.9,0,8.9-4,8.9-8.9C22.2,27.1,18.2,23.2,13.3,23.2"/>
<rect id="Rectangle_924" x="51.2" y="29.7" width="4.8" height="9.1"/>
<rect id="Rectangle_925" x="59.3" y="29.7" width="4.8" height="9.1"/>
<path id="Path_267" class="st0" d="M59,48l-3.2,3.3L20.5,16l3.2-3.2L59,48z"/>
<path id="Path_268" class="st0" d="M55.8,12.8l3.3,3.2L23.7,51.3l-3.2-3.2L55.8,12.8z"/>
</svg>
