<?xml version="1.0" encoding="utf-8"?>
<!-- Generator: Adobe Illustrator 22.0.1, SVG Export Plug-In . SVG Version: 6.00 Build 0)  -->
<svg version="1.1" id="Group_217" xmlns="http://www.w3.org/2000/svg" xmlns:xlink="http://www.w3.org/1999/xlink" x="0px" y="0px"
	 viewBox="0 0 84.3 84.3" style="enable-background:new 0 0 84.3 84.3;" xml:space="preserve">
<rect id="Rectangle_951" x="26.4" y="36.2" width="4.6" height="13.6"/>
<path id="Path_284" d="M79.9,43.7v4.6l-53.5-9.4v-4.6L79.9,43.7z"/>
<rect id="Rectangle_952" x="0" y="47.5" width="84.3" height="4.6"/>
<rect id="Rectangle_953" y="22.9" width="4.6" height="38.4"/>
<rect id="Rectangle_954" x="79.7" y="37.3" width="4.6" height="24.1"/>
<path id="Path_285" d="M15.4,45.6c-4.6,0-8.3-3.7-8.3-8.3c0-4.6,3.7-8.3,8.3-8.3c4.6,0,8.3,3.7,8.3,8.3C23.7,41.9,20,45.6,15.4,45.6
	 M15.4,33.5c-2.2,0-3.9,1.7-3.9,3.9c0,2.2,1.7,3.9,3.9,3.9c2.1,0,3.9-1.7,3.9-3.9C19.3,35.2,17.6,33.5,15.4,33.5
	C15.4,33.5,15.4,33.5,15.4,33.5"/>
</svg>
