<?xml version="1.0" encoding="utf-8"?>
<!-- Generator: Adobe Illustrator 22.0.1, SVG Export Plug-In . SVG Version: 6.00 Build 0)  -->
<svg version="1.1" id="Group_220" xmlns="http://www.w3.org/2000/svg" xmlns:xlink="http://www.w3.org/1999/xlink" x="0px" y="0px"
	 viewBox="0 0 97.6 97.6" style="enable-background:new 0 0 97.6 97.6;" xml:space="preserve">
<style type="text/css">
	.st0{fill:#8A7F4E;}
</style>
<path id="Path_280" class="st0" d="M40.1,59.6h-4.4c0.1-6.5-5.1-11.7-11.6-11.8c-6.5-0.1-11.7,5.1-11.8,11.6c0,0.1,0,0.1,0,0.2H7.9
	c0-8.9,7.2-16.1,16.1-16.1S40.1,50.7,40.1,59.6"/>
<rect id="Rectangle_948" y="59.2" width="97.6" height="4.6"/>
<rect id="Rectangle_949" x="48.7" y="33.9" width="35.3" height="4.6"/>
<path id="Path_281" d="M84.9,33.9l-2.9,26h-4.6l2.9-26"/>
<path id="Path_282" d="M52.3,33.9l2.9,26h-4.6l-2.9-26"/>
<path id="Path_283" d="M87.3,56.1c-4.6,0-8.3-3.7-8.3-8.3c0-4.6,3.7-8.3,8.3-8.3c4.6,0,8.3,3.7,8.3,8.3v0
	C95.6,52.3,91.9,56.1,87.3,56.1 M87.3,43.9c-2.2,0-3.9,1.7-3.9,3.9c0,2.2,1.7,3.9,3.9,3.9c2.1,0,3.9-1.7,3.9-3.9
	C91.2,45.6,89.4,43.9,87.3,43.9"/>
</svg>
