<?xml version="1.0" encoding="utf-8"?>
<!-- Generator: Adobe Illustrator 22.0.1, SVG Export Plug-In . SVG Version: 6.00 Build 0)  -->
<svg version="1.1" id="Group_224" xmlns="http://www.w3.org/2000/svg" xmlns:xlink="http://www.w3.org/1999/xlink" x="0px" y="0px"
	 viewBox="0 0 65.3 65.3" style="enable-background:new 0 0 65.3 65.3;" xml:space="preserve">
<style type="text/css">
	.st0{fill:#8A7F4E;}
</style>
<path id="Path_259" d="M34.9,65.3l-4.6-4.7V37.4h4.6L34.9,65.3z"/>
<path id="Path_260" d="M32.7,40.3c-11.1,0-20.2-9-20.2-20.2C12.5,9,21.5,0,32.7,0c11.1,0,20.2,9,20.2,20.2c0,0,0,0,0,0
	C52.8,31.3,43.8,40.3,32.7,40.3 M32.7,4.4c-8.7,0-15.8,7.1-15.8,15.8c0,8.7,7.1,15.8,15.8,15.8c8.7,0,15.8-7.1,15.8-15.8
	C48.4,11.5,41.4,4.4,32.7,4.4"/>
<path id="Path_261" class="st0" d="M45.8,22.3h-4.4c0-5.9-4.8-10.7-10.7-10.7V7.1C39,7.1,45.8,13.9,45.8,22.3"/>
</svg>
