<?xml version="1.0" encoding="utf-8"?>
<!-- Generator: Adobe Illustrator 22.0.1, SVG Export Plug-In . SVG Version: 6.00 Build 0)  -->
<svg version="1.1" id="Group_219" xmlns="http://www.w3.org/2000/svg" xmlns:xlink="http://www.w3.org/1999/xlink" x="0px" y="0px"
	 viewBox="0 0 70.9 70.9" style="enable-background:new 0 0 70.9 70.9;" xml:space="preserve">
<style type="text/css">
	.st0{fill:#8A7F4E;}
</style>
<path id="Path_290" d="M44.6,50c-0.5,0.6-1,1.2-1.6,1.8c-1-0.8-2-1.6-3-2.3c0.6-0.8,1.1-1.7,1.5-2.6l-2.2-2.2
	c-0.5,1.2-1.1,2.3-1.9,3.4c-3.1-1.5-6.4-2.3-9.9-2.5v-8.8h3.9c-0.7-0.8-1.3-1.7-1.7-2.7h-2.1v-9c0.8-0.1,1.6-0.1,2.4-0.3
	c0.8-1.5,2-2.8,3.4-3.8c-1.9,0.6-3.8,1-5.8,1.2v-7.6c2.9,1.2,5.5,3.1,7.7,5.4c2.1-0.9,4.5-1,6.7-0.4c0.3-0.2,0.6-0.5,0.9-0.7
	c0.5,0.5,1,1,1.4,1.6c0.9,0.5,1.8,1.1,2.5,1.8l2,2l0.9-0.9c-3.3-6.5-9.2-11.3-16.2-13.3v-0.1c-0.1,0-0.3,0-0.4,0
	c-4.4-1.2-9.1-1.2-13.6,0c-0.1,0-0.3,0-0.4,0v0.1C5.1,14.2-3,28.7,1,42.6c2.5,8.8,9.3,15.6,18.1,18.1v0.1c0.1,0,0.3,0,0.4,0
	c4.4,1.2,9.1,1.2,13.6,0c0.1,0,0.3,0,0.4,0v-0.1c5.2-1.5,9.8-4.5,13.2-8.7L44.6,50z M32.7,13c2.9,0.8,5.6,2.2,7.9,4
	c-0.8,0.7-1.7,1.3-2.6,1.9c-2-2.3-4.4-4.3-7.1-5.8C31.5,13,32.1,13,32.7,13 M19.8,13c0.6,0,1.2,0.1,1.8,0.1
	c-2.8,1.5-5.2,3.5-7.3,5.9c-0.9-0.6-1.8-1.2-2.6-1.9C14.1,15.2,16.9,13.8,19.8,13 M24.9,14.7v7.6c-2.8-0.1-5.5-0.8-8-1.9
	C19.1,17.9,21.9,16,24.9,14.7 M9.6,19.1c1,0.8,2,1.6,3,2.3c-2.5,3.8-4,8.2-4.2,12.8H2.9C3.2,28.5,5.6,23.1,9.6,19.1 M2.9,36.8h5.5
	c0.2,4.6,1.7,9.1,4.3,12.9c-1.1,0.7-2.1,1.4-3,2.3C5.6,47.9,3.2,42.5,2.9,36.8 M19.8,58c-2.9-0.8-5.6-2.2-8-4.1
	c0.8-0.7,1.7-1.3,2.6-1.9c2,2.4,4.4,4.3,7.2,5.8C21,57.9,20.4,57.9,19.8,58 M24.9,56.3c-3-1.3-5.7-3.2-7.9-5.7
	c2.5-1.2,5.2-1.8,7.9-2V56.3z M24.9,45.7c-3.4,0.2-6.7,1.1-9.7,2.6c-2.3-3.4-3.7-7.4-3.9-11.5h13.7V45.7z M11.3,34.1
	c0.2-4.1,1.6-8,3.9-11.4c3.1,1.5,6.4,2.3,9.8,2.4v8.9H11.3z M27.6,48.5c2.8,0.1,5.5,0.8,8.1,1.9c-2.2,2.5-5,4.5-8.1,5.8V48.5z
	 M32.7,58c-0.6,0-1.2-0.1-1.8-0.1c2.8-1.5,5.3-3.6,7.3-6c0.9,0.6,1.8,1.2,2.6,1.9C38.5,55.7,35.7,57.1,32.7,58"/>
<path id="Path_291" class="st0" d="M48.7,57.2L30.3,38.8c-4.9-5-4.9-13,0.1-18c5-4.9,13-4.9,17.9,0l0.5,0.5l0.5-0.5
	c5-4.9,13-4.9,18,0.1c4.9,5,4.9,13,0,17.9L48.7,57.2z M39.3,21.5c-4.6,0-8.3,3.7-8.3,8.3c0,2.2,0.9,4.3,2.4,5.9L48.7,51l15.4-15.4
	c3.2-3.3,3.2-8.6-0.1-11.8c-3.2-3.2-8.4-3.2-11.7,0l-3.6,3.6l-3.6-3.6C43.6,22.3,41.5,21.4,39.3,21.5"/>
</svg>
